<?xml version="1.0" standalone="no"?>
<!DOCTYPE svg PUBLIC "-//W3C//DTD SVG 20010904//EN"
 "http://www.w3.org/TR/2001/REC-SVG-20010904/DTD/svg10.dtd">
<svg version="1.0" xmlns="http://www.w3.org/2000/svg"
 width="512.000000pt" height="512.000000pt" viewBox="0 0 512.000000 512.000000"
 preserveAspectRatio="xMidYMid meet">
<metadata>
Created by potrace 1.13, written by Peter Selinger 2001-2015
</metadata>
<g transform="translate(0.000000,512.000000) scale(0.100000,-0.100000)"
fill="#000000" stroke="none">
<path d="M1242 5108 c-7 -7 -12 -22 -12 -34 0 -40 -23 -89 -60 -125 -45 -44
-56 -87 -33 -134 15 -31 15 -44 5 -108 -8 -42 -19 -75 -27 -80 -8 -4 -15 -14
-15 -22 0 -8 -13 -24 -30 -36 -43 -32 -44 -46 -5 -65 29 -13 35 -22 35 -47 0
-16 -7 -35 -17 -42 -13 -10 -17 -30 -18 -94 0 -44 1 -81 2 -81 19 0 166 115
239 187 20 20 27 21 48 12 20 -9 28 -24 36 -65 6 -29 10 -59 9 -66 -3 -18 10
-47 37 -83 12 -16 26 -43 29 -60 14 -62 35 -114 59 -151 30 -46 27 -42 95
-105 l54 -49 166 2 c165 2 170 2 231 -34 8 -4 26 -14 40 -21 14 -6 51 -32 84
-57 32 -25 64 -48 70 -51 21 -12 83 -29 107 -29 27 -1 59 -21 59 -39 0 -6 5
-11 10 -11 6 0 10 -7 10 -16 0 -8 7 -22 15 -30 19 -20 20 -73 0 -80 -8 -3 -17
-14 -20 -25 -4 -10 -16 -24 -27 -30 -18 -9 -24 -8 -35 7 -12 17 -13 17 -13 -3
0 -11 -7 -23 -15 -27 -8 -3 -15 -13 -15 -21 0 -11 -6 -15 -19 -10 -12 3 -21 0
-25 -10 -3 -8 -12 -15 -19 -15 -8 0 -26 -11 -42 -24 -15 -13 -52 -29 -82 -35
-52 -10 -111 -39 -141 -68 -8 -7 -18 -11 -23 -7 -5 3 -26 -8 -47 -25 -21 -16
-51 -33 -68 -36 -35 -8 -78 -23 -121 -41 -18 -8 -72 -19 -120 -25 -48 -6 -94
-16 -102 -22 -7 -6 -48 -12 -90 -12 -42 0 -82 -4 -89 -9 -9 -5 -23 -3 -37 4
-18 10 -34 10 -67 2 -27 -7 -46 -8 -52 -2 -6 6 -17 10 -26 10 -9 0 -36 23 -60
51 -26 29 -67 61 -96 75 -51 24 -234 193 -234 216 0 6 14 8 38 4 63 -12 155
-6 187 10 17 9 47 37 67 63 21 25 49 59 64 74 32 34 25 57 -16 57 -40 0 -107
37 -195 109 -86 69 -122 89 -177 97 -24 4 -48 11 -55 16 -19 15 -34 -1 -27
-30 8 -31 48 -89 81 -115 17 -14 22 -25 17 -45 -18 -90 -29 -113 -71 -157
l-45 -46 6 -57 c4 -31 9 -75 12 -97 5 -35 0 -49 -40 -110 -47 -71 -50 -91 -20
-125 7 -9 20 -46 29 -83 12 -54 13 -79 5 -120 -27 -138 -31 -177 -26 -246 10
-124 70 -198 196 -245 80 -30 285 -66 373 -66 51 0 76 -6 126 -31 86 -43 103
-78 107 -221 3 -126 21 -176 85 -241 56 -57 67 -75 83 -138 24 -91 56 -166 93
-221 l36 -52 -7 -125 c-9 -185 -69 -488 -112 -573 -8 -15 -14 -37 -14 -50 -1
-13 -9 -41 -20 -63 -11 -22 -19 -43 -20 -47 0 -10 -82 -130 -124 -182 -68 -86
-236 -336 -236 -351 0 -3 144 -5 321 -5 l320 0 34 35 c18 20 38 49 45 65 7 17
18 30 24 30 6 0 20 14 30 31 10 16 33 44 52 61 35 32 104 63 104 47 0 -5 17
-9 38 -9 20 0 61 -9 90 -20 63 -24 154 -27 172 -5 15 19 5 28 -81 75 -48 25
-68 30 -129 30 -57 0 -77 4 -97 20 -14 11 -33 20 -43 20 -26 0 -102 72 -124
116 -10 22 -21 46 -25 54 -12 22 48 95 99 120 32 16 69 24 130 27 67 4 93 10
122 29 21 13 44 24 51 24 8 0 26 9 41 21 29 23 52 27 142 28 57 1 65 4 102 39
42 39 57 75 66 161 3 29 11 60 18 68 8 11 9 16 0 22 -7 4 -8 12 -2 21 6 8 10
25 10 38 0 12 4 30 9 40 5 9 17 36 27 60 9 24 24 47 32 51 8 5 18 32 23 62 7
47 14 59 56 97 26 24 62 49 78 57 17 7 47 29 67 49 22 22 47 36 61 36 14 0 27
5 29 12 5 15 121 14 126 -1 2 -6 17 -11 33 -11 16 0 29 -5 29 -12 0 -7 19 -21
43 -31 86 -38 109 -51 118 -69 5 -10 14 -18 20 -18 6 0 17 -7 25 -15 22 -21
39 -19 57 8 13 21 13 27 -4 62 -11 21 -19 44 -19 51 0 11 -23 68 -60 149 -11
22 -29 71 -41 108 -27 82 -21 99 52 149 32 21 61 53 84 93 19 33 49 76 65 95
43 50 43 51 99 150 19 35 81 100 81 86 0 -17 41 25 98 99 94 125 155 180 216
196 22 6 51 22 63 36 13 13 28 21 33 18 11 -7 52 38 84 89 10 17 25 35 32 39
7 4 24 29 37 55 56 112 124 229 144 250 7 7 13 20 13 27 0 7 9 29 21 47 69
110 111 191 129 250 12 36 28 69 36 72 8 3 14 16 14 29 0 13 4 27 8 33 5 5 17
37 27 72 10 34 24 67 32 73 7 6 13 20 13 30 0 11 4 19 9 19 5 0 14 14 20 30 5
17 17 30 25 30 33 0 39 122 16 295 -7 50 -13 109 -14 132 0 22 -4 45 -8 49 -5
4 -8 12 -8 18 0 6 5 5 12 -2 20 -20 26 -14 37 41 20 100 2 246 -37 289 -12 14
-12 20 -2 33 10 12 8 18 -11 34 -13 11 -37 23 -54 26 -59 13 -65 16 -62 38 1
17 -4 23 -23 25 -27 4 -73 49 -67 66 2 6 21 10 41 10 48 -2 42 20 -7 24 -36 3
-57 28 -42 52 3 5 -10 17 -29 26 -20 10 -37 27 -40 41 l-6 23 -305 0 -304 0
-30 -43 c-16 -24 -37 -50 -47 -58 -16 -13 -16 -12 -4 11 7 13 19 31 26 38 11
10 11 17 1 32 -13 23 -37 26 -55 8 -9 -9 -12 -9 -12 0 0 14 -91 17 -106 3 -5
-4 -22 -11 -39 -14 -16 -4 -24 -4 -17 -1 30 13 6 22 -64 23 -61 1 -81 -3 -104
-19 -38 -27 -60 -26 -52 3 5 20 4 21 -12 8 -13 -11 -19 -12 -25 -3 -5 9 -60
12 -193 11 -183 -1 -187 -1 -209 -25 -29 -31 -39 -30 -39 1 l0 25 -275 0
c-264 0 -275 -1 -285 -20 -6 -11 -15 -19 -19 -17 -5 1 -23 -13 -40 -32 -37
-41 -41 -29 -6 19 14 19 25 38 25 42 0 4 -244 8 -543 8 -409 0 -546 -3 -555
-12z m2128 -2117 c0 -6 -4 -13 -10 -16 -5 -3 -10 -15 -10 -25 0 -25 -74 -87
-114 -96 -17 -3 -44 -13 -60 -21 -43 -22 -200 -20 -235 4 l-26 17 35 6 c20 3
42 10 50 16 8 5 53 9 100 9 97 0 137 15 209 77 44 38 61 46 61 29z"/>
</g>
</svg>
